<?xml version="1.0" standalone="no"?>
<!DOCTYPE svg PUBLIC "-//W3C//DTD SVG 20010904//EN"
 "http://www.w3.org/TR/2001/REC-SVG-20010904/DTD/svg10.dtd">
<svg version="1.0" xmlns="http://www.w3.org/2000/svg"
 width="3375.000000pt" height="3375.000000pt" viewBox="0 0 3375.000000 3375.000000"
 preserveAspectRatio="xMidYMid meet">

<g transform="translate(0.000000,3375.000000) scale(0.100000,-0.100000)"
fill="#000000" stroke="none">
<path d="M6640 29948 c-373 -34 -693 -124 -1025 -288 -299 -147 -511 -298
-749 -533 -238 -235 -403 -463 -550 -758 -143 -287 -228 -556 -277 -879 l-24
-155 0 -10460 0 -10460 24 -155 c49 -326 136 -599 280 -885 149 -295 304 -508
536 -740 237 -238 460 -398 760 -545 340 -168 653 -254 1045 -290 161 -14
20269 -14 20430 0 392 36 705 122 1045 290 300 147 523 307 760 545 232 232
387 445 536 740 144 286 231 559 280 885 l24 155 0 10460 0 10460 -24 155
c-49 321 -134 593 -277 879 -146 294 -312 523 -549 757 -238 235 -451 387
-750 534 -339 167 -653 254 -1045 290 -145 13 -20309 12 -20450 -2z m12306
-5648 c124 -24 387 -86 424 -101 13 -6 41 -25 62 -42 121 -101 123 -103 146
-176 l23 -70 -26 -86 c-15 -47 -38 -138 -51 -203 -14 -64 -43 -168 -64 -229
-27 -77 -44 -151 -55 -230 -23 -178 -31 -214 -64 -298 -34 -85 -53 -160 -76
-309 -10 -64 -29 -131 -54 -192 -45 -107 -56 -152 -76 -319 -14 -120 -22 -154
-68 -276 -14 -36 -37 -122 -51 -192 -14 -70 -41 -166 -60 -214 -40 -103 -60
-196 -76 -348 -9 -79 -21 -136 -46 -201 -36 -97 -84 -283 -84 -325 0 -54 -33
-185 -60 -239 -39 -79 -47 -109 -69 -261 -14 -98 -30 -163 -55 -229 -20 -51
-50 -160 -67 -243 -16 -82 -41 -176 -54 -207 -36 -85 -61 -185 -75 -291 -22
-176 -29 -208 -65 -304 -19 -52 -47 -152 -61 -222 -14 -70 -36 -154 -50 -188
-58 -137 -93 -300 -94 -430 0 -53 -21 -136 -64 -248 -15 -38 -37 -126 -51
-195 -14 -70 -45 -185 -70 -257 -31 -92 -50 -171 -65 -270 -23 -158 -30 -187
-70 -300 -15 -44 -40 -143 -55 -220 -15 -77 -43 -180 -62 -230 -23 -61 -44
-146 -64 -265 -16 -96 -45 -222 -64 -280 -34 -105 -47 -160 -85 -364 -12 -61
-35 -141 -51 -179 -33 -75 -50 -144 -74 -312 -17 -112 -52 -266 -79 -342 -8
-24 -29 -108 -46 -187 -17 -80 -42 -171 -56 -203 -27 -59 -63 -214 -84 -358
-7 -44 -32 -145 -56 -224 -24 -80 -56 -202 -70 -271 -15 -69 -39 -156 -54
-195 -33 -83 -54 -183 -74 -360 -15 -123 -24 -159 -74 -296 -12 -31 -33 -120
-47 -199 -14 -78 -34 -159 -44 -179 -45 -87 -83 -247 -95 -401 -8 -92 -25
-155 -64 -240 -19 -41 -40 -117 -57 -205 -15 -78 -35 -151 -45 -165 -10 -14
-40 -70 -68 -125 -43 -85 -62 -110 -125 -167 -84 -75 -125 -95 -337 -158 -173
-52 -238 -62 -320 -50 -36 5 -90 10 -120 10 -75 0 -174 21 -301 63 -131 43
-141 48 -205 106 -29 25 -65 57 -82 71 -42 36 -56 110 -55 300 1 192 13 264
63 388 24 61 48 148 65 237 15 77 38 166 51 197 35 84 60 188 79 328 12 84 27
150 47 200 45 112 55 152 83 313 16 97 35 171 54 215 39 89 47 121 71 292 13
91 31 167 46 205 40 96 52 142 74 290 21 139 34 184 83 300 18 41 34 117 52
240 31 208 44 267 79 350 13 33 37 121 51 195 15 74 42 176 60 227 38 103 68
234 85 368 13 108 23 151 54 230 13 33 40 141 60 239 21 99 46 207 58 240 44
130 60 197 83 353 18 118 31 176 50 212 32 64 59 165 85 318 11 68 34 160 51
205 33 88 60 210 80 348 6 47 26 123 44 170 43 111 52 145 80 314 13 77 37
177 53 221 37 100 57 188 76 336 15 112 21 136 64 245 12 29 35 119 52 200 17
82 49 202 71 266 28 81 45 154 55 235 28 230 34 255 75 347 32 70 47 122 64
226 29 168 32 179 66 266 36 91 56 174 69 297 12 104 22 144 66 247 16 39 38
128 55 225 15 88 34 178 42 200 56 150 68 195 87 330 16 108 31 174 55 235 42
109 51 141 80 309 14 79 37 170 55 213 38 96 58 183 75 328 10 81 24 144 50
215 20 56 49 169 65 260 32 171 46 222 80 297 22 51 54 186 65 281 8 74 38
161 69 201 13 17 33 50 44 73 12 23 43 59 69 80 26 21 67 57 92 81 25 23 51
42 58 42 7 0 79 22 160 49 188 63 164 58 329 60 105 1 171 -4 250 -19z m3034
-2811 c71 -43 134 -104 635 -604 591 -592 931 -937 1100 -1119 66 -71 160
-168 210 -215 49 -47 209 -205 355 -351 147 -146 365 -363 486 -482 418 -414
722 -723 752 -766 17 -24 42 -52 56 -63 13 -10 35 -36 47 -57 12 -20 40 -56
63 -79 38 -41 62 -81 140 -238 34 -67 36 -76 42 -210 9 -218 -2 -281 -76 -430
-34 -69 -74 -137 -88 -153 -15 -15 -43 -47 -62 -72 -115 -149 -269 -308 -1340
-1380 -498 -498 -1015 -1018 -1150 -1156 -364 -374 -704 -718 -805 -816 -50
-47 -134 -131 -187 -185 -53 -54 -124 -119 -158 -146 -52 -41 -69 -48 -120
-54 l-58 -6 -99 85 c-54 47 -323 309 -598 583 -361 360 -511 515 -541 562
l-41 65 29 71 c21 52 44 87 84 127 30 30 149 152 265 270 115 118 220 224 232
235 12 11 35 35 52 54 16 19 45 49 63 65 41 38 597 593 633 633 14 15 41 42
60 59 19 16 48 46 65 65 17 19 48 51 70 73 293 288 541 536 619 621 39 42 83
88 99 103 16 15 46 45 67 67 20 22 50 51 65 65 15 14 41 40 58 58 37 41 83 87
122 124 16 15 58 60 94 99 36 39 91 98 123 130 64 64 63 57 12 157 -28 57
-262 303 -666 702 -119 118 -311 312 -426 430 -114 118 -320 323 -457 455
-136 132 -271 265 -300 295 -28 30 -100 104 -161 165 -60 60 -238 241 -395
400 -245 249 -290 300 -319 357 l-34 68 18 65 c20 75 25 81 540 595 349 349
457 456 512 512 130 133 182 169 273 187 3 0 21 -9 40 -20z m-9539 -33 c80
-54 192 -158 543 -505 302 -300 347 -343 396 -387 19 -17 51 -49 70 -70 19
-22 49 -51 65 -66 17 -14 51 -53 76 -85 40 -51 47 -69 53 -122 l7 -63 -41 -44
c-22 -24 -45 -55 -52 -69 -6 -13 -28 -36 -49 -51 -22 -15 -39 -31 -39 -35 0
-5 -62 -72 -137 -149 -76 -77 -167 -172 -203 -211 -36 -40 -82 -88 -103 -108
-21 -20 -86 -83 -143 -141 -58 -58 -108 -108 -112 -112 -160 -158 -365 -366
-422 -428 -41 -45 -88 -93 -105 -108 -16 -15 -43 -42 -60 -61 -16 -18 -43 -45
-59 -60 -16 -14 -46 -44 -67 -66 -21 -22 -47 -49 -58 -60 -42 -40 -619 -618
-877 -877 l-266 -268 -14 -66 -14 -67 42 -55 c24 -31 323 -338 664 -682 342
-344 640 -649 663 -677 23 -29 46 -53 51 -53 13 0 642 -628 971 -969 145 -151
291 -302 325 -335 51 -52 64 -72 82 -131 22 -70 22 -70 2 -95 -11 -14 -33 -47
-50 -75 -16 -27 -46 -61 -65 -74 -20 -13 -47 -44 -61 -67 -14 -24 -41 -53 -60
-65 -19 -11 -48 -41 -64 -65 -17 -24 -50 -57 -73 -73 -24 -16 -54 -44 -66 -63
-13 -18 -41 -46 -62 -63 -21 -16 -51 -46 -65 -66 -14 -21 -43 -49 -64 -63 -21
-14 -53 -46 -70 -71 -17 -25 -35 -45 -41 -45 -5 0 -96 -87 -202 -192 -105
-106 -210 -205 -232 -219 -22 -15 -50 -37 -63 -49 -21 -20 -30 -22 -90 -15
-56 6 -74 13 -112 43 -25 19 -327 317 -671 661 -345 344 -1022 1020 -1505
1501 -1208 1203 -1398 1401 -1475 1533 -17 28 -45 66 -61 84 -21 22 -47 75
-82 170 l-50 138 0 125 c0 106 5 138 27 210 42 138 66 203 85 231 9 14 43 65
75 113 33 51 111 142 185 218 70 71 186 191 259 266 73 76 145 148 160 162 15
14 70 70 123 124 52 55 110 114 129 130 35 31 199 190 374 362 50 50 198 199
328 330 217 220 568 565 650 640 19 17 122 123 229 234 330 344 728 746 841
850 39 36 85 80 102 99 31 32 176 174 279 273 43 41 128 84 173 87 6 1 40 -19
76 -43z"/>
</g>
</svg>
