<?xml version="1.0" standalone="no"?>
<!DOCTYPE svg PUBLIC "-//W3C//DTD SVG 20010904//EN"
 "http://www.w3.org/TR/2001/REC-SVG-20010904/DTD/svg10.dtd">
<svg version="1.0" xmlns="http://www.w3.org/2000/svg"
 width="500.000000pt" height="500.000000pt" viewBox="0 0 500.000000 500.000000"
 preserveAspectRatio="xMidYMid meet">

<g transform="translate(0.000000,500.000000) scale(0.100000,-0.100000)"
fill="#000000" stroke="none">
<path d="M978 3060 c-215 -5 -223 -8 -272 -74 -20 -26 -21 -42 -24 -404 -3
-398 0 -435 41 -480 51 -56 55 -56 427 -60 373 -4 428 1 479 44 60 50 62 69
59 490 l-3 381 -27 35 c-46 60 -70 66 -288 69 -107 2 -284 2 -392 -1z m295
-247 c3 -5 -23 -120 -58 -258 -57 -229 -64 -250 -85 -253 -35 -6 -41 10 -26
64 8 27 35 137 61 244 26 107 49 198 51 202 7 10 51 10 57 1z m237 -259 c0
-11 -33 -52 -74 -93 l-73 -73 -29 26 -29 25 58 58 57 59 -50 49 c-27 27 -50
54 -50 59 0 5 10 20 22 33 l23 24 72 -74 c40 -41 73 -83 73 -93z m-475 136
c20 -22 17 -28 -47 -92 -21 -20 -38 -40 -38 -44 0 -5 23 -32 52 -61 l52 -53
-26 -26 -26 -26 -76 74 c-42 40 -76 80 -76 88 0 17 139 160 156 160 6 0 19 -9
29 -20z"/>
<path d="M1906 2443 c-9 -9 -7 -426 3 -441 5 -8 42 -11 122 -9 91 2 121 6 142
20 31 20 67 74 61 91 -2 6 -6 24 -8 39 -6 36 -19 52 -56 67 l-29 12 34 33 c29
27 35 40 35 73 0 55 -35 96 -94 111 -49 12 -199 15 -210 4z m193 -53 c34 -9
41 -15 46 -43 7 -46 2 -65 -24 -84 -27 -18 -142 -26 -153 -9 -8 12 -11 130 -3
137 10 10 96 10 134 -1z m52 -219 c20 -25 26 -76 9 -86 -6 -4 -7 -12 -4 -18 4
-7 4 -9 -1 -5 -4 4 -15 2 -23 -4 -8 -7 -45 -13 -83 -15 -82 -2 -87 3 -84 92 1
33 3 62 4 64 0 2 37 1 82 -1 70 -3 83 -6 100 -27z"/>
<path d="M2912 2223 l3 -228 29 -3 c25 -3 28 -1 23 17 -6 25 17 35 34 15 50
-60 159 -42 208 33 18 27 24 52 25 93 0 64 -20 124 -40 116 -7 -3 -11 0 -8 7
14 37 -125 66 -158 34 -7 -8 -23 -19 -35 -26 -22 -11 -22 -10 -25 76 -3 88 -3
88 -31 91 l-27 3 2 -228z m225 38 c-1 -3 7 -19 18 -35 25 -37 29 -69 15 -112
-27 -81 -110 -98 -189 -38 -8 6 -12 80 -7 118 9 55 41 77 113 74 29 -1 51 -4
50 -7z"/>
<path d="M2398 2320 c-32 -9 -71 -44 -74 -65 -3 -22 32 -19 56 5 25 25 86 26
118 2 13 -10 24 -30 25 -47 l2 -30 -75 -5 c-107 -7 -150 -38 -150 -108 0 -36
36 -81 67 -83 10 0 29 -2 42 -5 14 -2 41 6 66 21 35 20 45 22 54 11 6 -7 8
-16 4 -19 -3 -4 3 -7 15 -7 11 0 24 5 28 11 7 12 6 191 -2 235 -5 30 -27 60
-54 74 -25 13 -93 19 -122 10z m128 -218 c-10 -41 -51 -72 -94 -72 -43 0 -55
7 -71 38 -15 28 0 60 32 67 42 9 102 10 120 2 14 -7 17 -15 13 -35z"/>
<path d="M3402 2317 c-68 -26 -103 -77 -108 -158 -7 -136 146 -221 258 -145
74 50 96 172 44 241 -46 60 -129 87 -194 62z m149 -89 c2 -9 2 -10 13 -50 11
-38 -10 -94 -44 -118 -30 -21 -94 -27 -105 -10 -4 6 -11 8 -16 5 -5 -4 -9 -1
-9 5 0 6 -5 8 -10 5 -6 -4 -9 -3 -8 2 2 4 -3 23 -11 40 -42 101 59 200 152
150 20 -12 38 -24 38 -29z"/>
<path d="M3755 2317 c-79 -24 -94 -126 -24 -162 16 -9 50 -18 75 -22 48 -6 84
-31 84 -57 0 -46 -87 -62 -134 -25 -19 15 -34 19 -52 15 -26 -7 -26 -7 -8 -27
11 -12 32 -28 48 -36 33 -17 129 -19 134 -3 2 6 8 8 13 4 5 -3 9 0 9 6 0 6 5
8 10 5 15 -9 40 57 33 86 -12 49 -28 59 -150 89 -47 12 -62 37 -41 69 10 17
23 21 60 21 29 0 48 -5 48 -11 0 -6 7 -9 15 -5 8 3 14 0 12 -7 -2 -10 31 -12
41 -2 10 9 -16 37 -52 55 -48 23 -64 24 -121 7z"/>
<path d="M4100 2318 c-28 -10 -58 -35 -71 -59 -12 -24 38 -22 65 2 47 44 136
10 136 -51 0 -33 3 -32 -96 -32 -66 0 -110 -25 -122 -70 -12 -47 -1 -80 37
-105 39 -27 101 -24 142 7 34 25 39 25 39 2 0 -13 9 -18 30 -20 l30 -2 0 115
c0 63 -3 115 -7 115 -5 0 -9 11 -9 25 -2 31 -20 54 -53 67 -38 14 -93 17 -121
6z m130 -206 c0 -41 -46 -82 -92 -82 -63 0 -102 58 -62 91 17 14 106 28 137
21 11 -3 17 -14 17 -30z"/>
<path d="M2670 2153 l0 -163 30 0 30 0 0 103 c0 128 16 163 80 173 34 6 41 10
38 28 -4 29 -61 26 -94 -5 -24 -22 -24 -22 -24 -2 0 15 -8 22 -30 25 l-30 5 0
-164z"/>
</g>
</svg>
